<svg width="30" height="31" viewBox="0 0 30 31" fill="none" xmlns="http://www.w3.org/2000/svg">
<circle cx="15" cy="15.1283" r="15" fill="#0C0D0F"/>
<path fill-rule="evenodd" clip-rule="evenodd" d="M9.28245 10.23C10.3151 10.23 11.1523 9.46658 11.1523 8.52377C11.1523 7.58013 10.3151 6.81567 9.28245 6.81567C8.24879 6.81567 7.41162 7.58013 7.41162 8.52377C7.41162 9.46658 8.24879 10.23 9.28245 10.23Z" fill="white"/>
<path fill-rule="evenodd" clip-rule="evenodd" d="M7.84021 21.2062H11.1953V11.53H7.84021V21.2062Z" fill="white"/>
<path fill-rule="evenodd" clip-rule="evenodd" d="M15.9039 15.8244C15.9039 14.7147 16.4289 13.6296 17.6843 13.6296C18.9396 13.6296 19.2483 14.7147 19.2483 15.7978V21.0825H22.5883V15.5818C22.5883 11.7602 20.3293 11.1013 18.9396 11.1013C17.5511 11.1013 16.7853 11.571 15.9039 12.709V11.4063H12.5544V21.0825H15.9039V15.8244Z" fill="white"/>
</svg>
