<svg width="30" height="31" viewBox="0 0 30 31" fill="none" xmlns="http://www.w3.org/2000/svg">
<circle cx="15" cy="15.1283" r="15" fill="#0C0D0F"/>
<path fill-rule="evenodd" clip-rule="evenodd" d="M11.7414 7.41406C9.28064 7.41406 7.28577 9.40894 7.28577 11.8697V18.387C7.28577 20.8478 9.28064 22.8426 11.7414 22.8426H18.2587C20.7195 22.8426 22.7143 20.8478 22.7143 18.387V11.8697C22.7143 9.40893 20.7195 7.41406 18.2587 7.41406H11.7414ZM11.8744 8.81055C10.1114 8.81055 8.68225 10.2397 8.68225 12.0027V18.2539C8.68225 20.0169 10.1114 21.446 11.8744 21.446H18.1256C19.8886 21.446 21.3177 20.0169 21.3177 18.2539V12.0027C21.3177 10.2397 19.8886 8.81055 18.1256 8.81055H11.8744Z" fill="white"/>
<path fill-rule="evenodd" clip-rule="evenodd" d="M14.9999 19.0519C17.1669 19.0519 18.9236 17.2952 18.9236 15.1282C18.9236 12.9613 17.1669 11.2046 14.9999 11.2046C12.833 11.2046 11.0763 12.9613 11.0763 15.1282C11.0763 17.2952 12.833 19.0519 14.9999 19.0519ZM15 17.6557C16.3957 17.6557 17.5271 16.5243 17.5271 15.1287C17.5271 13.733 16.3957 12.6016 15 12.6016C13.6043 12.6016 12.4729 13.733 12.4729 15.1287C12.4729 16.5243 13.6043 17.6557 15 17.6557Z" fill="white"/>
<circle cx="19.0566" cy="11.0053" r="0.931035" fill="white"/>
</svg>
