<svg width="30" height="30" viewBox="0 0 30 30" fill="none" xmlns="http://www.w3.org/2000/svg">
<circle cx="15" cy="15" r="15" fill="#0C0D0F"/>
<path fill-rule="evenodd" clip-rule="evenodd" d="M21.6976 9.36056C22.4352 9.559 23.0161 10.1436 23.2132 10.886C23.5714 12.2315 23.5714 15.039 23.5714 15.039C23.5714 15.039 23.5714 17.8464 23.2132 19.192C23.0161 19.9343 22.4352 20.519 21.6976 20.7174C20.3608 21.0779 15 21.0779 15 21.0779C15 21.0779 9.63928 21.0779 8.30242 20.7174C7.56486 20.519 6.98397 19.9343 6.7868 19.192C6.42859 17.8464 6.42859 15.039 6.42859 15.039C6.42859 15.039 6.42859 12.2315 6.7868 10.886C6.98397 10.1436 7.56486 9.559 8.30242 9.36056C9.63928 9 15 9 15 9C15 9 20.3608 9 21.6976 9.36056ZM17.7663 14.9777L13.2858 17.5265V12.4287L17.7663 14.9777Z" fill="#EEEEEE"/>
</svg>
