<svg width="30" height="30" viewBox="0 0 30 30" fill="none" xmlns="http://www.w3.org/2000/svg">
<path d="M21.6306 10.2404C22.0884 10.6982 22.0884 11.4402 21.6306 11.8977L13.769 19.7596C13.3112 20.2171 12.5694 20.2171 12.1117 19.7596L8.36923 16.0169C7.91147 15.5594 7.91147 14.8174 8.36923 14.3598C8.82677 13.9021 9.5688 13.9021 10.0263 14.3598L12.9402 17.2737L19.9733 10.2404C20.4311 9.78287 21.1731 9.78287 21.6306 10.2404ZM29.9999 15C29.9999 23.2912 23.29 30 14.9999 30C6.70869 30 -6.10352e-05 23.2901 -6.10352e-05 15C-6.10352e-05 6.70876 6.70984 0 14.9999 0C23.2912 0 29.9999 6.7099 29.9999 15ZM27.6562 15C27.6562 8.00423 21.9948 2.34375 14.9999 2.34375C8.00417 2.34375 2.34369 8.00514 2.34369 15C2.34369 21.9958 8.00508 27.6562 14.9999 27.6562C21.9957 27.6562 27.6562 21.9949 27.6562 15Z" fill="#0C0D0F"/>
</svg>
